<?xml version="1.0" encoding="UTF-8"?>
<!DOCTYPE svg PUBLIC "-//W3C//DTD SVG 1.1//EN" "http://www.w3.org/Graphics/SVG/1.1/DTD/svg11.dtd">
<!-- Creator: CorelDRAW 2021.5 -->
<svg xmlns="http://www.w3.org/2000/svg" xml:space="preserve" width="151.035mm" height="76.1999mm" version="1.1" style="shape-rendering:geometricPrecision; text-rendering:geometricPrecision; image-rendering:optimizeQuality; fill-rule:evenodd; clip-rule:evenodd"
viewBox="0 0 15103.5 7619.99"
 xmlns:xlink="http://www.w3.org/1999/xlink"
 xmlns:xodm="http://www.corel.com/coreldraw/odm/2003">
 <defs>
  <style type="text/css">
   <![CDATA[
    .fil0 {fill:black}
   ]]>
  </style>
 </defs>
 <g id="Camada_x0020_1">
  <metadata id="CorelCorpID_0Corel-Layer"/>
  <g id="_3208676790816">
   <path class="fil0" d="M7765.87 269.67c21.15,84.73 83.16,114.03 140.23,162.56 48.2,41.01 114.42,96.56 155.06,139.12l317.63 282.23c-21.83,62.05 -153.72,209.61 -198.66,264.38l-350.48 434.51c-149.47,157.95 -510.03,654.42 -652.41,805.29l-1015.02 1241.35c-40.89,50.09 -58.31,86.46 -96.73,127.55 -129.75,138.67 -284,352.5 -414.43,496.73l-510.36 615.25 -3.04 -4748.96 -587.3 3.49 -0.48 6565.55 583.94 1.07c25.14,-158.35 6.44,-555.72 4.93,-737.84 -2.04,-244.8 73.04,-239.27 271.47,-481.81l678.23 -838.37c2.63,2.28 6.64,2.41 7.73,7.05l1401.98 1992.22c55.73,83.05 80.46,59.73 202.04,59.07 592.76,-3.22 577.68,58.85 429.62,-158.21l-544.74 -786.89c-77.84,-110.09 -136.32,-207.62 -217.87,-314.79 -149.84,-196.95 -289.89,-427.66 -437.3,-627.6 -42.46,-57.59 -60.31,-98.91 -106.99,-159.56 -41.93,-54.47 -74.89,-98.76 -110.2,-155.96 -46.68,-75.63 -203.45,-283.58 -218.89,-329.12 42.77,-64.48 93.28,-112.64 147.31,-176.16 51.23,-60.24 93.71,-118.6 144.57,-177.95l1451.1 -1800.53c96.79,-124.15 186.2,-230.2 290.26,-354.2 55.17,-65.77 251.11,-329.59 297.09,-362.95 66.1,62.06 560.93,450.67 628.06,470.37 59.65,-68.67 35.99,-230.5 36.5,-387.72 0.5,-149.51 0.15,-298.99 0.57,-448.49 0.66,-241.36 27.34,-671.17 -2.02,-889.88 -121.86,-12.84 -1427.45,239.41 -1721.4,269.2z"/>
   <path class="fil0" d="M1664.25 3877.35c2.7,53.12 -13.44,120.01 -13.09,180.54l4.37 1205.36c-4.12,206.11 19.22,1291.39 -1.15,1381.81l573.53 7.78c-21.25,-129.14 -7.66,-1153.3 -4.43,-1361.57 3.54,-228.81 1.5,-457.9 0.13,-686.77 -0.74,-125.81 -30.56,-585.53 12.15,-659.48 64.71,-504.38 779.78,-568.65 965.18,-97.5 62.62,159.13 43.75,354 43.82,532.74 0.15,378.01 0.91,757.33 -2.24,1135.27 -1.5,180.07 -24.93,1036.41 5.37,1142.69l564.8 1.77c18.26,-142.3 3.5,-1428.48 3.81,-1691.07 0.35,-285 0.32,-569.99 0.89,-854.97 0.58,-284.19 -38.09,-476.73 -171.81,-682.42 -250.3,-385.04 -712.6,-571.94 -1176.97,-457.4 -227.22,56.03 -434.33,195.44 -544.03,311.63 -92.31,97.78 -286.3,377.18 -260.33,591.59z"/>
   <path class="fil0" d="M14516.56 5683.72c-33.93,195.9 -115.49,306.21 -228.09,379.25 -294.76,191.22 -667.53,109.62 -856.94,-153.6 -90.68,-126.03 -75.86,-370.05 -60.3,-540.09 29.66,-324.05 346.64,-542.36 714.57,-449.79 302.85,76.18 498.88,370.94 430.76,764.23zm-1713.08 349.54l-1.73 1572.34 561.33 -0.33 2.55 -1080.54 12.85 -57.38c390.01,444.05 1714.13,307.99 1724.96,-937.8 2,-229.04 -50.82,-447.42 -153,-620.33 -219.47,-371.4 -582.41,-545.96 -1025.96,-523.18 -333.07,17.1 -415.03,133.83 -576.51,200.02 -21.75,-175.26 35.72,-133.06 -195.6,-133.78 -111.82,-0.34 -237.83,-6.88 -347.6,-0.39l-1.29 1581.37z"/>
   <path class="fil0" d="M11679.44 6481.75c17.02,-20.87 -4.65,-20.77 18.94,0.86l-3.59 174.1 528.77 -10.1 12.16 -2205.14 -578.43 6.87c11.33,363.25 3.03,748.58 -0.08,1109.24 -1.92,223.03 26.5,334.7 -107.38,457.62 -208.73,191.62 -627.02,218.08 -803.6,14.45 -99.39,-114.59 -106.11,-268.89 -106.76,-458.07 -0.66,-188.5 14.7,-1006.76 -0.76,-1115.36l-563.51 0.62c-30.74,285.64 -8.59,716.06 -9.47,1016.64 -1.01,348.41 4.95,592.11 179.79,846.81 111.91,163 347.2,343.21 645.51,376.2 151.86,16.8 311.53,8.96 452.72,-31.42 157.21,-44.96 233.95,-108.29 335.69,-183.32z"/>
   <polygon class="fil0" points="335.55,6660.9 920.81,6660.09 918.84,1622.48 338.08,1618.59 "/>
   <path class="fil0" d="M529.14 60.45c-617.01,136.2 -688.67,924.22 -245.03,1224.54 515.76,349.14 1196.77,-92.53 1058.38,-707.93 -72.32,-321.59 -408.48,-605.99 -813.35,-516.61z"/>
   <path class="fil0" d="M9090.53 5833.05c-588.77,109.8 -417.07,969.55 150.55,860.36 414.71,-79.77 447.88,-610.89 179.84,-782.41 -90.24,-57.74 -198.83,-102.48 -330.39,-77.95z"/>
   <path class="fil0" d="M2235.76 3945.02c-42.71,73.95 -12.89,533.67 -12.15,659.48 1.37,228.87 3.41,457.96 -0.13,686.77 -3.23,208.27 -16.82,1232.43 4.43,1361.57l-573.53 -7.78c20.37,-90.42 -2.97,-1175.7 1.15,-1381.81l-4.37 -1205.36c-0.35,-60.53 15.79,-127.42 13.09,-180.54 -42.48,62.42 -19.37,611.9 -19.2,685.1 0.53,233.35 0.13,467.45 -0.85,700.8 -1.87,444.06 -22.33,961.47 3.46,1397.4l585.01 4.65 3.09 -2720.28z"/>
   <path class="fil0" d="M13365.63 6524.73l-2.55 1080.54 -561.33 0.33 1.73 -1572.34c-18.74,43.67 -33.23,1482.39 -11.48,1580.82l580.65 5.91c17.25,-154.95 11.49,-613.61 12.52,-815.02 0.39,-80.72 11.63,-215.48 -19.54,-280.24z"/>
   <path class="fil0" d="M12223.56 6646.61l-528.77 10.1 3.59 -174.1c-23.59,-21.63 -1.92,-21.73 -18.94,-0.86l5.4 175.64c79.59,28.19 191.38,7.12 276.19,7.15 46.73,0.02 93.46,0.18 140.19,0.61 20.05,0.19 52.54,2.02 71.32,0.19 53.95,-5.25 40.98,-8.5 51.02,-18.73 26.8,-46.93 29.35,-1726.91 25.18,-2070.1 -0.65,-53.72 7.86,-93.14 -13.02,-135.04l-12.16 2205.14z"/>
  </g>
 </g>
</svg>
